<?xml version="1.0" encoding="utf-8"?>
<!-- Generator: Adobe Illustrator 19.1.0, SVG Export Plug-In . SVG Version: 6.00 Build 0)  -->
<svg version="1.1" id="Layer_1" xmlns="http://www.w3.org/2000/svg" xmlns:xlink="http://www.w3.org/1999/xlink" x="0px" y="0px"
	 viewBox="0 0 160 60" style="enable-background:new 0 0 160 60;" xml:space="preserve">
<style type="text/css">
	.st0{fill:#F67D4B;}
</style>
<g>
	<path class="st0" d="M61.6,6.3c1.9,0,3,0.2,4.3,0.7V2.6c-1.1-0.6-2.6-0.9-4.9-0.9c-4.3,0-11.1,0.9-11.1,13v7.8l-18.1,0l0,8.4
		l-0.6,0c-2.7-7-8.6-9.3-13-9.2C7.3,21.5,0,30,0,39.9c0,0,0,0,0,0c0,0,0,0,0,0c0,10,7.3,18.4,18.1,18.3c4.4,0,10.4-2.2,13-9.2h0.6
		l0,8.4l4.8,0v-4.4V40v0V26.8v0h13.3v30.8h5.1V26.8h10.9v-4.4H54.9v-8.3C54.9,6.9,58.5,6.3,61.6,6.3z M30.9,40.4
		C30.9,40.4,30.9,40.4,30.9,40.4L30.9,40.4C30.9,40.4,30.9,40.4,30.9,40.4c0,7.3-5.1,13.3-13,13.3c-7.8,0-12.8-6.1-12.8-13.3
		c0,0,0,0,0,0h0c0,0,0,0,0,0c0,0,0,0,0,0l0,0c0,0,0,0,0,0c0-7.2,5.1-13.3,12.8-13.3C25.8,27.1,30.9,33.1,30.9,40.4
		C30.9,40.4,30.9,40.4,30.9,40.4L30.9,40.4C30.9,40.4,30.9,40.4,30.9,40.4z"/>
	<g>
		<path class="st0" d="M70.3,41.4C70.5,48,74.1,53.8,83,53.8c5.9,0,9.3-2.9,10.6-6.3h5.4c-1.2,5.6-7.1,10.7-15.9,10.7
			c-12.1,0-18-8.3-18-18c0-10.2,6.4-17.9,17.7-17.9c9.3,0,16.7,6.7,16.7,15.3c0,0.9,0,2.1-0.2,3.7H70.3z M70.4,37.4h23.8
			c0-6.7-5.1-11.1-11.6-11.1C75.4,26.3,70.7,30.5,70.4,37.4z"/>
	</g>
	<g>
		<path class="st0" d="M123.8,27.8c-1.3-0.4-2-0.5-3.2-0.5c-8.4,0-12.2,6.8-12.2,14.8v15.2h-5V23.1h5v8c2-5.5,7-8.5,12.2-8.5
			c1.2,0,2.4,0.2,3.2,0.5V27.8z"/>
	</g>
	<g>
		<path class="st0" d="M124,40.4c0-9.7,7.1-17.9,17.9-17.9c11,0,18.1,8.2,18.1,17.9c0,9.7-7.1,17.9-18.1,17.9
			C131.1,58.4,124,50.1,124,40.4z M155,40.4c0-7.3-5.1-13.4-13.1-13.4c-7.8,0-12.9,6.1-12.9,13.4c0,7.2,5.1,13.3,12.9,13.3
			C149.9,53.7,155,47.6,155,40.4z"/>
	</g>
</g>
</svg>
