<?xml version="1.0" encoding="utf-8"?>
<!-- Generator: Adobe Illustrator 19.1.0, SVG Export Plug-In . SVG Version: 6.00 Build 0)  -->
<svg version="1.1" id="Layer_1" xmlns="http://www.w3.org/2000/svg" xmlns:xlink="http://www.w3.org/1999/xlink" x="0px" y="0px"
	 viewBox="0 0 150 150" style="enable-background:new 0 0 150 150;" xml:space="preserve">
<style type="text/css">
	.st0{fill:#AAC148;}
</style>
<g>
	<path class="st0" d="M113,49.5H37c-1.7,0-3.1,1.4-3.1,3.1v63.8c0,1.7,1.4,3.1,3.1,3.1h13.6V141c0,5,4,9,9,9l0,0c5,0,9-4,9-9v-21.5
		h12.6V141c0,5,4,9,9,9l0,0c5,0,9-4,9-9v-21.5H113c1.7,0,3.1-1.4,3.1-3.1V52.6C116.1,50.9,114.7,49.5,113,49.5z"/>
	<path class="st0" d="M21,49.5L21,49.5c-5,0-9,4-9,9v36.7c0,5,4,9,9,9l0,0c5,0,9-4,9-9V58.5C30,53.6,26,49.5,21,49.5z"/>
	<path class="st0" d="M129,49.5L129,49.5c-5,0-9,4-9,9v36.7c0,5,4,9,9,9l0,0c5,0,9-4,9-9V58.5C138,53.6,134,49.5,129,49.5z"/>
	<path class="st0" d="M37.6,45h74.7c1.9,0,3.4-1.8,3-3.7c-2.5-11.8-10-21.7-20.1-27.4l6.4-11.5c0.4-0.8,0.2-1.8-0.6-2.2
		c-0.8-0.4-1.8-0.2-2.2,0.6l-6.4,11.6C87,10,81.1,8.6,74.9,8.6c-6.2,0-12.1,1.4-17.3,3.8L51.1,0.8c-0.4-0.8-1.4-1.1-2.2-0.6
		c-0.8,0.4-1.1,1.4-0.6,2.2l6.4,11.5C44.5,19.6,37,29.6,34.6,41.3C34.2,43.3,35.6,45,37.6,45z M97.2,27.9c0,1.9-1.6,3.5-3.5,3.5
		c-1.9,0-3.5-1.6-3.5-3.5c0-1.9,1.6-3.5,3.5-3.5C95.6,24.4,97.2,26,97.2,27.9z M56.1,24.4c1.9,0,3.5,1.6,3.5,3.5
		c0,1.9-1.6,3.5-3.5,3.5c-1.9,0-3.5-1.6-3.5-3.5C52.6,26,54.2,24.4,56.1,24.4z"/>
</g>
</svg>
