<?xml version="1.0" encoding="utf-8"?>
<!-- Generator: Adobe Illustrator 19.1.0, SVG Export Plug-In . SVG Version: 6.00 Build 0)  -->
<svg version="1.1" id="Layer_1" xmlns="http://www.w3.org/2000/svg" xmlns:xlink="http://www.w3.org/1999/xlink" x="0px" y="0px"
	 viewBox="0 0 150 150" style="enable-background:new 0 0 150 150;" xml:space="preserve">
<style type="text/css">
	.st0{fill:none;}
</style>
<g>
	<path d="M115.8,79.6c-0.2-19,15.5-28.1,16.2-28.5c-8.8-12.9-22.5-14.6-27.4-14.8c-11.7-1.2-22.8,6.9-28.7,6.9
		c-5.9,0-15-6.7-24.7-6.5c-12.7,0.2-24.4,7.4-31,18.8c-13.2,22.9-3.4,56.9,9.5,75.5c6.3,9.1,13.8,19.3,23.7,19
		c9.5-0.4,13.1-6.1,24.6-6.1c11.5,0,14.7,6.1,24.7,6c10.2-0.2,16.7-9.3,22.9-18.4c7.2-10.6,10.2-20.8,10.4-21.3
		C135.7,109.8,116,102.3,115.8,79.6L115.8,79.6z M97,23.9c5.2-6.3,8.8-15.1,7.8-23.9c-7.5,0.3-16.7,5-22.1,11.3
		c-4.8,5.6-9.1,14.6-8,23.2C83.2,35.2,91.7,30.3,97,23.9L97,23.9z M97,23.9"/>
	<rect x="13.9" class="st0" width="122.1" height="150"/>
</g>
</svg>
