<?xml version="1.0" encoding="utf-8"?>
<!-- Generator: Adobe Illustrator 19.1.0, SVG Export Plug-In . SVG Version: 6.00 Build 0)  -->
<svg version="1.1" id="Layer_1" xmlns="http://www.w3.org/2000/svg" xmlns:xlink="http://www.w3.org/1999/xlink" x="0px" y="0px"
	 viewBox="0 0 16 16" style="enable-background:new 0 0 16 16;" xml:space="preserve">
<style type="text/css">
	.st0{fill:#039EFA;}
	.st1{fill:#231F20;}
</style>
<g>
	<g>
		<g>
			<path class="st0" d="M0.4,1v13.8c0,0.2,0.2,0.4,0.4,0.4l8.3,0l0-1.4c0,0,0-0.6,0-1.4L9,8L6.2,8.1c-0.1,0-0.3,0-0.4-0.1
				c-0.2-0.2-0.1-0.4,0-0.6l3.3-6.7l-8.4,0C0.6,0.7,0.4,0.9,0.4,1z"/>
		</g>
	</g>
	<g>
		<g>
			<path class="st1" d="M3.6,3.4c0,0.8,0,1.7,0,2.5c0,0.4,0.7,0.4,0.7,0c0-0.8,0-1.7,0-2.5C4.3,2.9,3.6,2.9,3.6,3.4L3.6,3.4z"/>
		</g>
	</g>
	<g>
		<g>
			<path class="st1" d="M12,3.4c0,0.8,0,1.7,0,2.5c0,0.4,0.7,0.4,0.7,0c0-0.8,0-1.7,0-2.5C12.7,2.9,12,2.9,12,3.4L12,3.4z"/>
		</g>
	</g>
	<path class="st1" d="M15.2,0H0.8C0.4,0,0,0.4,0,0.8v14.3C0,15.6,0.4,16,0.8,16h14.3c0.5,0,0.8-0.4,0.8-0.8V0.8
		C16,0.4,15.6,0,15.2,0z M0.8,15.2l0-14.3l7.9,0C7.6,3.2,6.4,5.5,5.3,7.8C5.1,8,5.3,8.3,5.6,8.3c1.1,0,2.1,0,3.2-0.1
		c0,1.3,0,2.7,0,4C7.1,12.3,5.5,12,4.1,11c-0.4-0.3-0.7,0.3-0.4,0.6c1.5,1,3.2,1.4,5,1.3c0,0.7,0,1.5,0,2.2L0.8,15.2z M15.2,15.2
		C15.2,15.2,15.2,15.2,15.2,15.2l-5.7,0c0-0.8,0-1.5,0-2.3c1.3-0.2,2.6-0.6,3.7-1.2c0.4-0.2,0-0.8-0.4-0.6c-1,0.6-2.2,1-3.3,1.1
		c0-1.4,0-2.8,0-4.3c0-0.2-0.2-0.4-0.3-0.3c-1,0-2,0-3,0.1c1.1-2.2,2.3-4.5,3.4-6.7c0,0,0,0,0,0l5.6,0V15.2z"/>
</g>
</svg>
