<?xml version="1.0" encoding="utf-8"?>
<!-- Generator: Adobe Illustrator 19.1.0, SVG Export Plug-In . SVG Version: 6.00 Build 0)  -->
<svg version="1.1" id="Layer_1" xmlns="http://www.w3.org/2000/svg" xmlns:xlink="http://www.w3.org/1999/xlink" x="0px" y="0px"
	 viewBox="0 0 16 16" style="enable-background:new 0 0 16 16;" xml:space="preserve">
<style type="text/css">
	.st0{fill:#00A6D2;}
	.st1{fill:#F05523;}
	.st2{fill:#80B441;}
	.st3{fill:#FCB813;}
</style>
<g>
	<path class="st0" d="M6.4,8C5.7,7.6,5,7.4,4.3,7.4c-0.1,0-0.2,0-0.3,0C3.1,7.5,2.3,7.7,1.8,7.9C1.7,8,1.5,8,1.4,8.1L0,12.9
		c1-0.4,1.8-0.5,2.6-0.5c1.3,0,2.2,0.5,2.9,1c0.4-1.2,1.2-4.1,1.5-5C6.8,8.2,6.6,8.1,6.4,8z"/>
	<path class="st1" d="M4.6,5.8c1.2,0,2.1,0.5,2.8,0.9l1.4-4.9C8.6,1.6,7.8,1.2,7.2,1C6.8,0.9,6.4,0.9,6,0.9c-0.8,0-1.7,0.2-2.7,0.6
		L1.9,6.3C2.9,6,3.8,5.8,4.6,5.8L4.6,5.8z"/>
	<path class="st2" d="M16,3.1c-0.9,0.4-1.8,0.5-2.7,0.5c-1.4,0-2.5-0.5-3.2-1L8.7,7.6c1,0.6,2,0.9,3.1,0.9c0.9,0,1.8-0.2,2.7-0.6
		l0,0l0.1,0L16,3.1z"/>
	<path class="st3" d="M8.3,9.2l-1.4,4.9c0.4,0.2,1.8,1,2.9,1c0.9,0,1.8-0.2,3-0.7l1.3-4.7c-0.9,0.3-1.8,0.4-2.6,0.4
		C10,10.2,8.9,9.7,8.3,9.2z"/>
</g>
</svg>
